<svg id="Слой_1" data-name="Слой 1" xmlns="http://www.w3.org/2000/svg" xmlns:xlink="http://www.w3.org/1999/xlink" viewBox="0 0 50 30"><defs><style>.cls-1{mask:url(#mask);}.cls-2{mask:url(#mask-2);}.cls-3{mask:url(#mask-3);}</style><mask id="mask" x="0" y="0" width="46.08" height="30" maskUnits="userSpaceOnUse"/><mask id="mask-2" x="18.79" y="0" width="5.75" height="4.19" maskUnits="userSpaceOnUse"/><mask id="mask-3" x="47.28" y="0" width="2.72" height="11.03" maskUnits="userSpaceOnUse"/></defs><title>footer-logo</title><g class="cls-1"><path d="M28.46,30V21.56l-5.37,4.22-5.43-4.22V30H0V0H17.09L23,6l6-6H46.08V12.87l-3.85,7.52c-0.25.49-.88,0.55-1,0s-0.63-6-1.39-6.28-2.24-.81-2.91.18-0.95.87-.38,2.9,4,10,4,10a0.77,0.77,0,0,0,.79.48c1,0.15,2,.19,2.31-0.48s2.46-6.84,2.46-6.84V30H35.34L34.78,13.61s5.31-2.77,5.5-3.57S39.39,7.88,38.5,8.38s-4.8,2.77-4.8,2.77a3.66,3.66,0,0,1-.88,0c-0.44-.06-2-0.31-2.08.62a11.64,11.64,0,0,0-.13,1.42s-2.34,1.6-4,2.46S23.37,16.94,23,17.31a1.37,1.37,0,0,0,0,1.85c0.62,0.68,1.12,1.11,2.13.55s4.5-3.23,4.86-3.33,1.14-.68,1.33.55S31.24,30,31.24,30H28.46Z" transform="translate(0 0)"/></g><path d="M21.07,30V25.93l-2.27-1.85V30h2.27Zm3.79-3.94,2.34-2v1.48l-0.38.49h-2Z" transform="translate(0 0)"/><g class="cls-2"><path d="M18.79,0L23,4.19l1.5-1.66-0.38-.43Z" transform="translate(0 0)"/></g><g class="cls-3"><path d="M47.28,0L50,1.6V7.76L47.28,11V0Z" transform="translate(0 0)"/></g><path d="M50,13.37V30H47.28V17.68Z" transform="translate(0 0)"/></svg>